<svg width="28" height="28" viewBox="0 0 28 28" fill="none" xmlns="http://www.w3.org/2000/svg">
<circle cx="14" cy="14" r="14" fill="url(#paint0_linear)"/>
<path d="M11.9583 6.51392H18.7639C19.1249 6.51392 19.4711 6.65732 19.7263 6.91258C19.9816 7.16783 20.125 7.51404 20.125 7.87503V18.7639L18.7639 18.1718V7.87503H10.5972C10.5972 7.51404 10.7406 7.16783 10.9959 6.91258C11.2511 6.65732 11.5973 6.51392 11.9583 6.51392ZM16.0417 19.4445V10.5972H9.23611V19.4445L12.6389 17.9609L16.0417 19.4445ZM16.0417 9.23614C16.4027 9.23614 16.7489 9.37954 17.0041 9.6348C17.2594 9.89006 17.4028 10.2363 17.4028 10.5972V21.4861L12.6389 19.4445L7.875 21.4861V10.5972C7.875 10.2363 8.0184 9.89006 8.27366 9.6348C8.52892 9.37954 8.87512 9.23614 9.23611 9.23614H16.0417Z" fill="white"/>
<defs>
<linearGradient id="paint0_linear" x1="14" y1="0" x2="14" y2="28" gradientUnits="userSpaceOnUse">
<stop stop-color="#0081FF"/>
<stop offset="1" stop-color="#00B2FF"/>
</linearGradient>
</defs>
</svg>
