<svg width="28" height="28" viewBox="0 0 28 28" fill="none" xmlns="http://www.w3.org/2000/svg">
<circle cx="14" cy="14" r="14" fill="url(#paint0_linear)"/>
<path d="M11.4333 14.1499H16.8667V15.5083H11.4333V14.1499ZM12.7917 19.5833H10.075V8.71661H14.8292V12.1124H18.225V14.2179L19.5833 12.8595V11.4333L15.5083 7.35828H10.075C9.71476 7.35828 9.36926 7.50139 9.11452 7.75612C8.85978 8.01086 8.71667 8.35636 8.71667 8.71661V19.5833C8.71667 19.9435 8.85978 20.289 9.11452 20.5438C9.36926 20.7985 9.71476 20.9416 10.075 20.9416H12.7917V19.5833ZM11.4333 18.2249H14.2179L14.8292 17.6137V16.8666H11.4333V18.2249ZM19.7192 14.8291C19.7871 14.8291 19.9229 14.897 19.9908 14.9649L20.8738 15.8479C21.0096 15.9837 21.0096 16.2554 20.8738 16.3912L20.1946 17.0704L18.7683 15.6441L19.4475 14.9649C19.5154 14.897 19.5833 14.8291 19.7192 14.8291V14.8291ZM19.7192 17.4779L15.5763 21.6208H14.15V20.1945L18.2929 16.0516L19.7192 17.4779V17.4779Z" fill="white"/>
<defs>
<linearGradient id="paint0_linear" x1="14" y1="0" x2="14" y2="28" gradientUnits="userSpaceOnUse">
<stop stop-color="#0081FF"/>
<stop offset="1" stop-color="#00B2FF"/>
</linearGradient>
</defs>
</svg>
