<svg width="28" height="28" viewBox="0 0 28 28" fill="none" xmlns="http://www.w3.org/2000/svg">
<circle cx="14" cy="14" r="13.5" fill="url(#paint0_linear)" stroke="#01A8FF"/>
<path d="M12.2986 7.875C13.4718 7.875 14.597 8.34106 15.4266 9.17065C16.2562 10.0002 16.7222 11.1254 16.7222 12.2986C16.7222 13.3943 16.3207 14.4015 15.6606 15.1774L15.8443 15.3611H16.3819L19.7847 18.7639L18.7639 19.7847L15.3611 16.3819V15.8443L15.1774 15.6606C14.3747 16.3457 13.354 16.7222 12.2986 16.7222C11.1254 16.7222 10.0002 16.2562 9.17065 15.4266C8.34106 14.597 7.875 13.4718 7.875 12.2986C7.875 11.1254 8.34106 10.0002 9.17065 9.17065C10.0002 8.34106 11.1254 7.875 12.2986 7.875ZM12.2986 9.23611C10.5972 9.23611 9.23611 10.5972 9.23611 12.2986C9.23611 14 10.5972 15.3611 12.2986 15.3611C14 15.3611 15.3611 14 15.3611 12.2986C15.3611 10.5972 14 9.23611 12.2986 9.23611Z" fill="white"/>
<defs>
<linearGradient id="paint0_linear" x1="14" y1="0" x2="14" y2="28" gradientUnits="userSpaceOnUse">
<stop stop-color="#0081FF"/>
<stop offset="1" stop-color="#00B2FF"/>
</linearGradient>
</defs>
</svg>
